PathFileType	4	(X/Y/Z)	RBDS001\RBDS001runT45.trc
DataRate	CameraRate	NumFrames	NumMarkers	Units	OrigDataRate	OrigDataStartFrame	OrigNumFrames
150.000000	150.000000	4	33	mm	150.000000	0	4500
Frame#	Time	L.ASIS			L.Heel.Bottom			L.Heel.Lateral			L.Heel.Top			L.Iliac.Crest			L.MT1			L.MT5			L.PSIS			L.Shank.Bottom.Lateral			L.Shank.Bottom.Medial			L.Shank.Top.Lateral			L.Shank.Top.Medial			L.Thigh.Bottom.Lateral			L.Thigh.Bottom.Medial			L.Thigh.Top.Lateral			L.Thigh.Top.Medial			R.ASIS			R.ASY			R.Heel.Bottom			R.Heel.Lateral			R.Heel.Top			R.Iliac.Crest			R.MT1			R.MT5			R.PSIS			R.Shank.Bottom.Lateral			R.Shank.Bottom.Medial			R.Shank.Top.Lateral			R.Shank.Top.Medial			R.Thigh.Bottom.Lateral			R.Thigh.Bottom.Medial			R.Thigh.Top.Lateral			R.Thigh.Top.Medial			
		X1	Y1	Z1	X2	Y2	Z2	X3	Y3	Z3	X4	Y4	Z4	X5	Y5	Z5	X6	Y6	Z6	X7	Y7	Z7	X8	Y8	Z8	X9	Y9	Z9	X10	Y10	Z10	X11	Y11	Z11	X12	Y12	Z12	X13	Y13	Z13	X14	Y14	Z14	X15	Y15	Z15	X16	Y16	Z16	X17	Y17	Z17	X18	Y18	Z18	X19	Y19	Z19	X20	Y20	Z20	X21	Y21	Z21	X22	Y22	Z22	X23	Y23	Z23	X24	Y24	Z24	X25	Y25	Z25	X26	Y26	Z26	X27	Y27	Z27	X28	Y28	Z28	X29	Y29	Z29	X30	Y30	Z30	X31	Y31	Z31	X32	Y32	Z32	X33	Y33	Z33	

1	0	2393.105062376717	997.1070518206849	927.299010266346	2065.887979499043	525.3283491498436	964.5476933201505	2080.657949619557	499.421009165261	921.6940761879792	2112.734700206711	517.2801422754181	966.3841213211629	2337.295647716403	1067.552769833068	887.767210165409	2091.790644195969	302.4681395789536	991.1584989952441	2077.585994127982	339.4585729883954	889.8228945150481	2219.711804988594	1044.852856466176	981.0917912888685	2214.546610632387	478.7072170089264	905.4152963548721	2202.542857095449	515.5629558088622	939.4250696108983	2288.492098744677	508.6717451786431	894.5916273207841	2280.63441337488	546.3435170331927	931.7341456074404	2476.730872956146	640.3935869201549	868.2761281764527	2436.823287046912	612.4948924239039	923.0204935029728	2400.464639484312	719.0807905738258	856.4124769673658	2362.335302152644	693.2415239829783	908.111592686129	2371.207420776698	991.89414335777	1137.317111308439	2131.651907809315	86.76200393158003	1037.263254372119	1935.663407320903	71.17660486066049	1035.133848867929	1968.348925266201	79.14774053859112	1078.579749630267	1957.065101279746	115.5615915158121	1036.087346348673	2316.845819786929	1064.76848236354	1161.76384276729	2153.937775473879	50.18479678795875	989.1466695221819	2129.641555526914	45.50198843873545	1095.574382201489	2218.040843933932	1047.879272565865	1056.457513738982	2078.933805313583	183.1116490931436	1094.485467968537	2044.150236248903	214.8244493095429	1068.041278607464	2118.397196243095	250.1762237587847	1119.081597915067	2084.613817013327	280.4530642427769	1090.723873346949	2274.286998351119	573.4037323553505	1158.586744041815	2217.981153510164	572.4410303420856	1110.126017348228	2256.22153888883	681.7742395940095	1173.299574669171	2202.000207981254	679.9919481798189	1127.932792884721	
2	0.006666666666666667	2395.164627192943	1003.396579011237	929.5062614086293	2079.878778659207	502.7852575824654	967.7219197239967	2096.738025200406	479.4107471859105	924.6722332287763	2126.8414011772	499.2203918573001	969.1636083655741	2339.785802488132	1073.511759312142	888.7819164476596	2125.148409987553	284.519867535053	990.9795587820387	2107.708781061227	321.8396169031896	890.0572986025877	2222.295808206408	1050.029927520327	981.3375034887731	2231.986418111639	468.5067558066542	907.3269851590778	2217.51718746784	504.4929073598486	941.2225389325367	2303.485254076627	503.3700234218759	896.2119248150593	2292.879879420345	540.5543561468219	932.9366595786976	2485.337886495076	651.6275731543137	869.0151767935076	2446.559274484222	623.2736504614423	924.4334696356055	2406.979840504107	728.0275035634153	856.6045301494094	2369.77576833738	701.5585579458084	908.6434235889828	2373.31924942141	994.4365128437885	1138.493173627927	2105.77275776338	86.38760506822589	1038.079282212127	1909.245508024001	81.60775573361579	1035.729478089846	1942.57918870221	87.23163220656775	1079.140817434318	1932.914280397123	124.7834453291566	1036.970413070425	2320.898330706241	1068.269574020959	1162.047808626924	2125.028363724163	48.65704406056532	988.9976781286989	2100.690316819856	45.13438867534407	1095.75826870767	2220.626043997293	1052.190425988534	1056.912084920697	2054.083256931678	190.8323850044003	1095.07497062972	2019.786783162626	222.3432781089232	1067.579244344576	2093.77614744267	257.9207710334812	1119.007122021512	2060.441902859766	288.0289685678879	1089.753675130816	2258.705471887492	578.9576828419258	1158.089869291421	2202.143509315567	580.9317128270039	1110.134241906844	2245.78739010527	687.6951997104807	1173.238404631339	2191.618970238817	688.7606302489993	1128.043264404743	
3	0.01333333333333333	2397.212929944003	1009.6240439778	931.5984591319901	2094.388524433548	480.1379733280444	970.9958104496822	2113.194803472474	459.2366249564624	927.7240982983428	2141.380803958883	480.9986719360158	971.9933805936905	2342.244777974074	1079.448466120778	889.7618206003709	2158.738394796116	266.798277299581	990.8304070583259	2137.938261964642	304.2178185448091	890.3838355033116	2224.910380752182	1055.190307255634	981.6445709075258	2249.59490185573	458.1697497883338	909.2277971849492	2232.687427411726	493.2174335512661	943.0190075226336	2318.527282853712	497.8789887509722	897.8218494464296	2305.203538981442	534.497553302656	934.154978815018	2493.704731058521	662.6625940700387	869.7902870800939	2455.966641803695	633.8177170478211	925.7840389598268	2413.340496627695	736.8599636572933	856.8447651225689	2376.998977004021	709.7533932440747	909.1664529804362	2375.539683718893	996.9622555679581	1139.569680563604	2080.144934713493	86.19848048174701	1038.997657897123	1883.502580595013	92.55159982104979	1036.282525035918	1917.328437267647	95.7600247769083	1079.683549888023	1909.451555954884	134.379194919686	1037.874595887097	2325.036253877842	1071.760442732779	1162.306235040964	2096.366530868474	47.37843322127699	988.9310714276803	2071.873015343035	44.9652088596389	1095.984779304532	2223.280979516037	1056.509404584632	1057.42260740978	2029.706963622475	198.7223079311958	1095.727335785681	1995.912022998776	229.9792386505554	1067.153256693246	2069.57832577717	265.8705628359476	1118.978391398775	2036.695892567417	295.760867081534	1088.803847829106	2243.324646372336	584.785822040879	1157.560592164089	2186.569638371312	589.6853347056237	1110.083689192619	2235.547059799419	693.8212299277419	1173.155678878957	2181.505936940993	697.7138562281341	1128.091641632795	
4	0.02	2399.239280860079	1015.728639144759	933.4623365951926	2109.912725812161	457.2248917544791	974.4200326244838	2130.409749383554	438.6964915652836	930.8840982090085	2156.765549031873	462.410022176083	974.8915913189894	2344.635204618697	1085.327908039966	890.6729544018355	2192.820830016637	249.4835373127301	990.7673042842141	2168.44721275623	286.5774437889947	890.890227344849	2227.579829365119	1060.318456859871	982.0704855830685	2267.544548889628	447.5401779420644	911.1041233714171	2248.253072210264	481.5172432291079	944.8135498030533	2333.680653960908	492.0003102644	899.4096563112537	2317.696643476697	527.9040845761131	935.4054232608429	2501.625114314782	673.3146436997358	870.6278605195148	2464.754240056389	643.902272209734	927.0009850612171	2419.41143962823	745.4739879743236	857.1777830473185	2383.810246943866	717.7059316382129	909.6670271648114	2377.960755525776	999.4614367375488	1140.455761992733	2054.977009671238	86.37059450313949	1040.111438861244	1858.998138870941	104.4405583203211	1036.742776294318	1893.027946414505	105.117554571697	1080.181265416158	1887.248370800957	144.6680580897	1038.804017760799	2329.337910177646	1075.234411836916	1162.515875327558	2068.167023713221	46.56921868588054	989.0324980389724	2043.305098611414	45.17876037393808	1096.297872204177	2226.070150178068	1060.846709441467	1058.040327640067	2006.204082118119	206.9325198565286	1096.488665726355	1972.936049722813	237.8413950590557	1066.786854044909	2046.164410885109	274.210970366237	1119.028840752404	2013.737850003844	303.7935602636105	1087.886701108953	2228.326648645183	591.1369794311856	1156.973217916147	2171.500916696682	598.9340594384578	1109.920938341344	2225.669084153214	700.3402248374533	1173.029755052159	2171.896615258144	707.0156446454952	1128.018465344461	
